<svg xmlns="http://www.w3.org/2000/svg" viewBox="0 0 64 64">
  <rect width="64" height="64" rx="13" fill="#0E1B2C"/>
  <g transform="translate(4.4 8.8) scale(0.79)" color="#8FA67D"><path d="M 5 32 Q 35 12 65 32" stroke="currentColor" stroke-width="2" fill="none" stroke-linecap="round"/><path d="M 5 32 q -2.5 -0.5, -3.5 1" stroke="currentColor" stroke-width="1.4" fill="none" stroke-linecap="round" opacity="0.85"/><path d="M 65 32 q 2.5 -0.5, 3.5 1" stroke="currentColor" stroke-width="1.4" fill="none" stroke-linecap="round" opacity="0.85"/><path d="M 11.00 28.40 Q 10.25 24.66, 7.15 22.45 Q 7.90 26.19, 11.00 28.40 Z" fill="currentColor" fill-opacity="0.92" stroke="currentColor" stroke-width="0.4" stroke-linejoin="round"/><path d="M 11.00 28.40 Q 11.18 31.54, 13.80 33.30 Q 13.62 30.16, 11.00 28.40 Z" fill="currentColor" fill-opacity="0.92" stroke="currentColor" stroke-width="0.4" stroke-linejoin="round"/><line x1="11.00" y1="28.40" x2="11.00" y2="32.40" stroke="currentColor" stroke-width="0.9" stroke-linecap="round" opacity="0.85"/><ellipse cx="11.00" cy="33.40" rx="2.6" ry="3.3" fill="currentColor"/><path d="M 23.00 23.60 Q 22.25 19.86, 19.15 17.65 Q 19.90 21.39, 23.00 23.60 Z" fill="currentColor" fill-opacity="0.92" stroke="currentColor" stroke-width="0.4" stroke-linejoin="round"/><path d="M 23.00 23.60 Q 23.18 26.74, 25.80 28.50 Q 25.62 25.36, 23.00 23.60 Z" fill="currentColor" fill-opacity="0.92" stroke="currentColor" stroke-width="0.4" stroke-linejoin="round"/><line x1="23.00" y1="23.60" x2="23.00" y2="27.60" stroke="currentColor" stroke-width="0.9" stroke-linecap="round" opacity="0.85"/><ellipse cx="23.00" cy="28.60" rx="2.6" ry="3.3" fill="currentColor"/><path d="M 35.00 22.00 Q 36.40 19.02, 35.00 16.05 Q 33.60 19.02, 35.00 22.00 Z" fill="currentColor" fill-opacity="0.92" stroke="currentColor" stroke-width="0.4" stroke-linejoin="round"/><path d="M 35.00 22.00 Q 33.60 24.45, 35.00 26.90 Q 36.40 24.45, 35.00 22.00 Z" fill="currentColor" fill-opacity="0.92" stroke="currentColor" stroke-width="0.4" stroke-linejoin="round"/><line x1="35.00" y1="22.00" x2="35.00" y2="26.00" stroke="currentColor" stroke-width="0.9" stroke-linecap="round" opacity="0.85"/><ellipse cx="35.00" cy="27.00" rx="2.6" ry="3.3" fill="currentColor"/><path d="M 47.00 23.60 Q 50.10 21.39, 50.85 17.65 Q 47.75 19.86, 47.00 23.60 Z" fill="currentColor" fill-opacity="0.92" stroke="currentColor" stroke-width="0.4" stroke-linejoin="round"/><path d="M 47.00 23.60 Q 44.38 25.36, 44.20 28.50 Q 46.82 26.74, 47.00 23.60 Z" fill="currentColor" fill-opacity="0.92" stroke="currentColor" stroke-width="0.4" stroke-linejoin="round"/><line x1="47.00" y1="23.60" x2="47.00" y2="27.60" stroke="currentColor" stroke-width="0.9" stroke-linecap="round" opacity="0.85"/><ellipse cx="47.00" cy="28.60" rx="2.6" ry="3.3" fill="currentColor"/><path d="M 59.00 28.40 Q 62.10 26.19, 62.85 22.45 Q 59.75 24.66, 59.00 28.40 Z" fill="currentColor" fill-opacity="0.92" stroke="currentColor" stroke-width="0.4" stroke-linejoin="round"/><path d="M 59.00 28.40 Q 56.38 30.16, 56.20 33.30 Q 58.82 31.54, 59.00 28.40 Z" fill="currentColor" fill-opacity="0.92" stroke="currentColor" stroke-width="0.4" stroke-linejoin="round"/><line x1="59.00" y1="28.40" x2="59.00" y2="32.40" stroke="currentColor" stroke-width="0.9" stroke-linecap="round" opacity="0.85"/><ellipse cx="59.00" cy="33.40" rx="2.6" ry="3.3" fill="currentColor"/></g>
</svg>